<?xml version="1.0" encoding="UTF-8"?>
<svg version="1.1" xmlns="http://www.w3.org/2000/svg" width="320" height="320">
<path d="M0 0 C105.6 0 211.2 0 320 0 C320 105.6 320 211.2 320 320 C214.4 320 108.8 320 0 320 C0 214.4 0 108.8 0 0 Z " fill="#000000" transform="translate(0,0)"/>
<path d="M0 0 C3.3 0 6.6 0 10 0 C10.66 4.29 11.32 8.58 12 13 C13.81298005 11.18701995 13.67555005 8.38818302 14.0625 5.9375 C14.23910156 4.83277344 14.41570312 3.72804687 14.59765625 2.58984375 C14.73042969 1.73519531 14.86320312 0.88054687 15 0 C18.63 0 22.26 0 26 0 C26.66 12.54 27.32 25.08 28 38 C25.03 38 22.06 38 19 38 C18.67 33.38 18.34 28.76 18 24 C17.34 28.62 16.68 33.24 16 38 C13.69 38 11.38 38 9 38 C8.34 33.38 7.68 28.76 7 24 C6.34 28.62 5.68 33.24 5 38 C-8.07297362 39.58830521 -8.07297362 39.58830521 -12.25 36.9375 C-15.47108228 31.53068332 -16.99960466 26.32676611 -16 20 C-14.68827786 16.54489683 -13.05639762 13.75928579 -10 11.5625 C-8 11 -8 11 -4 11 C-4 13.97 -4 16.94 -4 20 C-4.99 20.33 -5.98 20.66 -7 21 C-7 23.31 -7 25.62 -7 28 C-6.01 28.33 -5.02 28.66 -4 29 C-2.68 19.43 -1.36 9.86 0 0 Z " fill="#345D34" transform="translate(64,140)"/>
<path d="M0 0 C3.63 0 7.26 0 11 0 C11.8320582 5.72040011 12.12036664 11.22240116 12 17 C12.66 17 13.32 17 14 17 C13.97679688 16.43152344 13.95359375 15.86304688 13.9296875 15.27734375 C13.80808312 10.07441352 14.32276508 5.92687757 16 1 C19.3 1 22.6 1 26 1 C27.40751879 13.32603834 28.43732224 25.60628192 29 38 C26.03 38 23.06 38 20 38 C19.67 32.72 19.34 27.44 19 22 C18.01 27.28 17.02 32.56 16 38 C14.02 38 12.04 38 10 38 C8.80911014 32.61972975 7.7080481 27.54708616 8 22 C7.34 22 6.68 22 6 22 C6 27.28 6 32.56 6 38 C3.03 38 0.06 38 -3 38 C-2.68816307 33.91661575 -2.37540525 29.83330251 -2.0625 25.75 C-1.97548828 24.61046875 -1.88847656 23.4709375 -1.79882812 22.296875 C-1.22853556 14.86194977 -0.626727 7.43038493 0 0 Z " fill="#355F35" transform="translate(19,140)"/>
<path d="M0 0 C4.95 0 9.9 0 15 0 C20 5 20 5 20.55859375 8.0078125 C20.51863281 9.03648437 20.47867187 10.06515625 20.4375 11.125 C20.41558594 12.15882813 20.39367187 13.19265625 20.37109375 14.2578125 C20 17 20 17 18 20 C17.34 20 16.68 20 16 20 C17.33800314 24.11693275 18.81250889 28.14822776 20.4140625 32.16796875 C21 34 21 34 21 37 C18.36 37 15.72 37 13 37 C12.01 33.7 11.02 30.4 10 27 C9.67 30.3 9.34 33.6 9 37 C6.03 37 3.06 37 0 37 C0 24.79 0 12.58 0 0 Z " fill="#325A32" transform="translate(270,141)"/>
<path d="M0 0 C14 0 14 0 17 1 C19.8703004 6.20906369 20.57270559 10.0820422 20 16 C19.00585407 17.67016516 18.0064275 19.33720673 17 21 C17.25359844 26.45236642 19.36943127 31.81089447 21 37 C18.03 37 15.06 37 12 37 C11.01 33.7 10.02 30.4 9 27 C8.67 30.3 8.34 33.6 8 37 C5.36 37 2.72 37 0 37 C0 24.79 0 12.58 0 0 Z " fill="#366036" transform="translate(172,141)"/>
<path d="M0 0 C12 0 12 0 17 3 C20.18815714 6.95771231 20.36324232 10.00541812 20 15 C19.5 17.4375 19.5 17.4375 19 19 C18.34 19 17.68 19 17 19 C15.65777303 22.64680536 16.36425807 24.52509526 17.9375 28 C19.50174344 31.4784532 20 33.06311222 20 37 C17.36 37 14.72 37 12 37 C11.01 33.7 10.02 30.4 9 27 C8.67 30.3 8.34 33.6 8 37 C5.36 37 2.72 37 0 37 C0 24.79 0 12.58 0 0 Z " fill="#345E33" transform="translate(248,141)"/>
<path d="M0 0 C3.63 0 7.26 0 11 0 C11.81951164 4.29035793 12.62931573 8.58249512 13.4375 12.875 C13.66759766 14.07898438 13.89769531 15.28296875 14.13476562 16.5234375 C15.41251174 23.33808346 16.47378864 30.08436458 17 37 C14.36 37 11.72 37 9 37 C8.67 35.35 8.34 33.7 8 32 C5.525 32.495 5.525 32.495 3 33 C2.67 34.32 2.34 35.64 2 37 C-0.64 37 -3.28 37 -6 37 C-4.76767678 24.48219043 -2.62012689 12.29933348 0 0 Z " fill="#355F35" transform="translate(229,141)"/>
<path d="M0 0 C1.37478516 0.01740234 1.37478516 0.01740234 2.77734375 0.03515625 C3.69644531 0.04417969 4.61554688 0.05320313 5.5625 0.0625 C6.27277344 0.07410156 6.98304687 0.08570313 7.71484375 0.09765625 C8.41075435 4.22327499 9.10443271 8.34926133 9.79614258 12.47558594 C10.03122269 13.8760769 10.26688757 15.27646984 10.50317383 16.67675781 C12.91865417 30.99601125 12.91865417 30.99601125 13.71484375 38.09765625 C10.74484375 38.09765625 7.77484375 38.09765625 4.71484375 38.09765625 C4.71484375 36.44765625 4.71484375 34.79765625 4.71484375 33.09765625 C2.73484375 33.09765625 0.75484375 33.09765625 -1.28515625 33.09765625 C-1.28515625 34.74765625 -1.28515625 36.39765625 -1.28515625 38.09765625 C-3.92515625 38.09765625 -6.56515625 38.09765625 -9.28515625 38.09765625 C-8.29359282 28.87350701 -6.94970372 19.77556276 -5.22265625 10.66015625 C-5.04831055 9.73050049 -4.87396484 8.80084473 -4.69433594 7.84301758 C-4.52708008 6.9795874 -4.35982422 6.11615723 -4.1875 5.2265625 C-4.03788818 4.4538501 -3.88827637 3.6811377 -3.73413086 2.88500977 C-3.06379031 0.21640553 -2.80211206 0.11974838 0 0 Z " fill="#366035" transform="translate(103.28515625,139.90234375)"/>
<path d="M0 0 C4.95 0 9.9 0 15 0 C15 2.97 15 5.94 15 9 C12.69 9 10.38 9 8 9 C8 10.98 8 12.96 8 15 C10.31 15 12.62 15 15 15 C15 17.97 15 20.94 15 24 C12.69 24 10.38 24 8 24 C8 25.65 8 27.3 8 29 C10.31 29 12.62 29 15 29 C15 31.97 15 34.94 15 38 C10.05 38 5.1 38 0 38 C0 25.46 0 12.92 0 0 Z " fill="#345E35" transform="translate(154,140)"/>
<path d="M0 0 C0.66 0.33 1.32 0.66 2 1 C2 4.3 2 7.6 2 11 C1.34 11 0.68 11 0 11 C0 10.34 0 9.68 0 9 C-1.32 9 -2.64 9 -4 9 C-2.7727206 13.50002447 -1.38136866 15.83678416 2 19 C2.9702889 21.91086669 3.16467847 23.90223685 3.1875 26.9375 C3.20167969 27.79214844 3.21585938 28.64679688 3.23046875 29.52734375 C2.98253823 32.18734413 2.41651695 33.75023778 1 36 C-2.69583902 38.87454146 -5.36445612 39.41204834 -10 39 C-10.66 38.67 -11.32 38.34 -12 38 C-12 34.37 -12 30.74 -12 27 C-9.69 27.99 -7.38 28.98 -5 30 C-6.2272794 25.49997553 -7.61863134 23.16321584 -11 20 C-12.66550691 15.00347926 -12.63421165 9.94227317 -11 4.9375 C-10.67 4.298125 -10.34 3.65875 -10 3 C-9.34 3 -8.68 3 -8 3 C-8 2.34 -8 1.68 -8 1 C-5.26094655 -0.36952673 -3.02912668 -0.12621361 0 0 Z " fill="#366036" transform="translate(130,140)"/>
<path d="M0 0 C0 3.3 0 6.6 0 10 C-2.31 10 -4.62 10 -7 10 C-8.55747511 16.42458483 -8.41109022 21.82158131 -6 28 C-4.02 28.33 -2.04 28.66 0 29 C0.02689216 30.47906892 0.04634621 31.95827483 0.0625 33.4375 C0.07410156 34.26121094 0.08570313 35.08492187 0.09765625 35.93359375 C0 38 0 38 -1 39 C-8.01369863 39.70136986 -8.01369863 39.70136986 -11.8125 37 C-17.44866014 29.27040894 -18.15672713 21.38234227 -17 12 C-13.78775334 2.87314046 -9.47055094 -0.47352755 0 0 Z " fill="#365F36" transform="translate(221,140)"/>
<path d="M0 0 C5.61 0 11.22 0 17 0 C17 2.97 17 5.94 17 9 C15.35 9 13.7 9 12 9 C12 18.24 12 27.48 12 37 C9.36 37 6.72 37 4 37 C4 27.76 4 18.52 4 9 C2.68 9 1.36 9 0 9 C0 6.03 0 3.06 0 0 Z " fill="#346030" transform="translate(135,141)"/>
<path d="M0 0 C2.57357888 0.34778093 4.50839053 0.65167955 6.6484375 2.16796875 C8.58433725 4.79206407 8.36386249 6.77601609 8.3125 10 C8.30863281 11.051875 8.30476563 12.10375 8.30078125 13.1875 C8 16 8 16 6 19 C5.34 19 4.68 19 4 19 C5.33800314 23.11693275 6.81250889 27.14822776 8.4140625 31.16796875 C9 33 9 33 9 36 C6.36 36 3.72 36 1 36 C-0.66554027 30.69960141 -2.27275406 25.52706913 -3 20 C-3.66 20 -4.32 20 -5 20 C-6.67479795 14.97560615 -6.23615622 10.09914442 -5 5 C-4.67 5 -4.34 5 -4 5 C-3.67 8.63 -3.34 12.26 -3 16 C-1.68 15.67 -0.36 15.34 1 15 C1.13733318 8.92308191 1.13733318 8.92308191 0 3 C0 2.01 0 1.02 0 0 Z " fill="#376237" transform="translate(282,142)"/>
<path d="M0 0 C3.63 0 7.26 0 11 0 C12.24591691 5.13940726 13.27288504 9.6787418 13 15 C11.68 14.01 10.36 13.02 9 12 C8.67 15.96 8.34 19.92 8 24 C6.68 24.33 5.36 24.66 4 25 C4 20.38 4 15.76 4 11 C2.35 12.65 0.7 14.3 -1 16 C-2.49583688 10.27816243 -1.17237435 5.72394537 0 0 Z " fill="#375D35" transform="translate(229,141)"/>
<path d="M0 0 C2 0.3125 2 0.3125 4 1 C5.45785084 3.91570168 5.35172584 6.69559269 5.5625 9.9375 C5.64628906 11.18402344 5.73007813 12.43054688 5.81640625 13.71484375 C5.93335747 15.80752405 6 17.90405429 6 20 C6.66 20.66 7.32 21.32 8 22 C6.35 22 4.7 22 3 22 C3 23.65 3 25.3 3 27 C0.36 27 -2.28 27 -5 27 C-2.09550562 2.09550562 -2.09550562 2.09550562 0 0 Z " fill="#386237" transform="translate(99,151)"/>
<path d="M0 0 C0.99 0 1.98 0 3 0 C3 12.21 3 24.42 3 37 C2.01 37 1.02 37 0 37 C0 34.03 0 31.06 0 28 C-2.31 28 -4.62 28 -7 28 C-7 26.35 -7 24.7 -7 23 C-4.69 23 -2.38 23 0 23 C0 20.03 0 17.06 0 14 C-2.31 14 -4.62 14 -7 14 C-7 12.02 -7 10.04 -7 8 C-4.69 8 -2.38 8 0 8 C0 5.36 0 2.72 0 0 Z " fill="#041503" transform="translate(169,141)"/>
<path d="M0 0 C4.95 0 9.9 0 15 0 C15 0.66 15 1.32 15 2 C8.07 1.505 8.07 1.505 1 1 C1 13.21 1 25.42 1 38 C3.64 38 6.28 38 9 38 C9 38.33 9 38.66 9 39 C2.74692761 39.83288874 -2.76817361 40.03863773 -9 39 C-9 38.67 -9 38.34 -9 38 C-6.36 38 -3.72 38 -1 38 C-1.28049194 36.52406372 -1.28049194 36.52406372 -1.56665039 35.01831055 C-2.25815574 31.36883227 -2.93977171 27.71756509 -3.6184082 24.06567383 C-3.91356098 22.48508936 -4.21139676 20.90500345 -4.51196289 19.32543945 C-4.94342369 17.05545641 -5.36521722 14.78385774 -5.78515625 12.51171875 C-5.92156021 11.80536789 -6.05796417 11.09901703 -6.19850159 10.3712616 C-6.79395753 7.09943437 -7.07037629 5.21112886 -6 2 C-6 2.66 -6 3.32 -6 4 C-4.68 4 -3.36 4 -2 4 C-1.67 5.65 -1.34 7.3 -1 9 C-0.67 6.03 -0.34 3.06 0 0 Z " fill="#0A1809" transform="translate(247,140)"/>
<path d="M0 0 C0.99 0.495 0.99 0.495 2 1 C2.4140625 3.94140625 2.4140625 3.94140625 2.625 7.5625 C2.69976562 8.76003906 2.77453125 9.95757812 2.8515625 11.19140625 C2.90054688 12.11824219 2.94953125 13.04507813 3 14 C3.99 14 4.98 14 6 14 C6.84191782 16.9248633 7.11819313 19.50741656 7.09765625 22.546875 C7.09282227 23.81337891 7.09282227 23.81337891 7.08789062 25.10546875 C7.07951172 25.97816406 7.07113281 26.85085937 7.0625 27.75 C7.05798828 28.63816406 7.05347656 29.52632812 7.04882812 30.44140625 C7.037074 32.62767329 7.02064249 34.81380179 7 37 C4.69 37 2.38 37 0 37 C0 24.79 0 12.58 0 0 Z " fill="#376338" transform="translate(248,141)"/>
<path d="M0 0 C1.17718385 2.3543677 1.07026819 3.69940169 1 6.3125 C0.90771016 11.23832744 0.90771016 11.23832744 2 16 C3.93383287 17.30065921 3.93383287 17.30065921 6 18 C7 19 7 19 7.0625 21.5625 C7.041875 22.366875 7.02125 23.17125 7 24 C2.125 23.125 2.125 23.125 1 22 C0.67 25.3 0.34 28.6 0 32 C-1.82629586 29.26055621 -2.33961368 28.13565186 -2.88671875 25.05859375 C-3.02013672 24.31029297 -3.15355469 23.56199219 -3.29101562 22.79101562 C-3.42185547 22.01435547 -3.55269531 21.23769531 -3.6875 20.4375 C-3.82994141 19.65697266 -3.97238281 18.87644531 -4.11914062 18.07226562 C-5.12787276 12.25574552 -5.12787276 12.25574552 -4 10 C-3.34 11.32 -2.68 12.64 -2 14 C-1.93941406 13.07316406 -1.87882812 12.14632812 -1.81640625 11.19140625 C-1.73261719 9.99386719 -1.64882812 8.79632813 -1.5625 7.5625 C-1.48128906 6.36753906 -1.40007812 5.17257813 -1.31640625 3.94140625 C-1 1 -1 1 0 0 Z " fill="#061507" transform="translate(118,146)"/>
<path d="M0 0 C1.98510058 1.63707833 2.91847304 2.50096147 3.34057617 5.0847168 C3.32486572 5.86500244 3.30915527 6.64528809 3.29296875 7.44921875 C3.28330078 8.29677734 3.27363281 9.14433594 3.26367188 10.01757812 C3.23853516 10.89865234 3.21339844 11.77972656 3.1875 12.6875 C3.17396484 13.58017578 3.16042969 14.47285156 3.14648438 15.39257812 C3.11114079 17.59566166 3.06180493 19.79752582 3 22 C5.64 22 8.28 22 11 22 C11 22.33 11 22.66 11 23 C4.73 23 -1.54 23 -8 23 C-7.505 21.515 -7.505 21.515 -7 20 C-7 20.66 -7 21.32 -7 22 C-4.36 22 -1.72 22 1 22 C0.61585938 20.95199219 0.23171875 19.90398437 -0.1640625 18.82421875 C-0.65175026 17.44556296 -1.13869074 16.06664265 -1.625 14.6875 C-1.88023437 13.99720703 -2.13546875 13.30691406 -2.3984375 12.59570312 C-3.03580981 10.76325774 -3.52703077 8.88159498 -4 7 C-3.34 6.01 -2.68 5.02 -2 4 C-1.34 4 -0.68 4 0 4 C0 2.68 0 1.36 0 0 Z " fill="#041004" transform="translate(267,156)"/>
<path d="M0 0 C0.33 0 0.66 0 1 0 C1.50579714 3.04080421 2.00480759 6.08246646 2.5 9.125 C2.64308594 9.9809375 2.78617187 10.836875 2.93359375 11.71875 C3.65695734 16.19671505 4.17918816 20.44563435 4 25 C1.36 25 -1.28 25 -4 25 C-4 22.03 -4 19.06 -4 16 C-3.34 16.33 -2.68 16.66 -2 17 C-0.47893366 13.95786733 -0.62570662 10.71952428 -0.4375 7.375 C-0.39431641 6.66859375 -0.35113281 5.9621875 -0.30664062 5.234375 C-0.20055249 3.48981463 -0.09977111 1.74493303 0 0 Z " fill="#356339" transform="translate(88,153)"/>
<path d="M0 0 C3.96 0 7.92 0 12 0 C12 2.97 12 5.94 12 9 C10.35 9 8.7 9 7 9 C7 18.24 7 27.48 7 37 C4.69 37 2.38 37 0 37 C0 36.34 0 35.68 0 35 C1.98 35 3.96 35 6 35 C5.98952637 34.17274414 5.97905273 33.34548828 5.96826172 32.49316406 C5.92669088 28.7454736 5.90067008 24.99783168 5.875 21.25 C5.85824219 19.94804687 5.84148437 18.64609375 5.82421875 17.3046875 C5.81777344 16.05429688 5.81132812 14.80390625 5.8046875 13.515625 C5.79421387 12.36352539 5.78374023 11.21142578 5.77294922 10.02441406 C5.99241238 7.10107034 6.47271878 5.46267491 8 3 C5.36 2.34 2.72 1.68 0 1 C0 0.67 0 0.34 0 0 Z " fill="#3C5E3B" transform="translate(140,141)"/>
<path d="M0 0 C3.3 0 6.6 0 10 0 C10 2.64 10 5.28 10 8 C6.7 8 3.4 8 0 8 C0 5.36 0 2.72 0 0 Z " fill="#365A34" transform="translate(193,158)"/>
<path d="M0 0 C0.66 0.66 1.32 1.32 2 2 C2.66 1.34 3.32 0.68 4 0 C4.99 0.33 5.98 0.66 7 1 C7.19412181 2.47831221 7.38012131 3.95769316 7.5625 5.4375 C7.66691406 6.26121094 7.77132812 7.08492187 7.87890625 7.93359375 C7.91886719 8.61550781 7.95882812 9.29742187 8 10 C7.67 10.33 7.34 10.66 7 11 C3.625 10.875 3.625 10.875 0 10 C-1.9375 7.4375 -1.9375 7.4375 -3 5 C-2.34 5 -1.68 5 -1 5 C-0.67 3.35 -0.34 1.7 0 0 Z " fill="#2C512B" transform="translate(53,168)"/>
<path d="M0 0 C1.65 0.33 3.3 0.66 5 1 C5.02712066 2.43739513 5.04645067 3.87493863 5.0625 5.3125 C5.07410156 6.11300781 5.08570313 6.91351563 5.09765625 7.73828125 C5 10 5 10 4 13 C3.34 13 2.68 13 2 13 C2.309375 13.928125 2.309375 13.928125 2.625 14.875 C2.74875 15.57625 2.8725 16.2775 3 17 C2.34 17.66 1.68 18.32 1 19 C-3.92307692 14.69230769 -3.92307692 14.69230769 -4.3125 11.1875 C-4.209375 10.465625 -4.10625 9.74375 -4 9 C-2.68 9 -1.36 9 0 9 C0 9.66 0 10.32 0 11 C0.66 11 1.32 11 2 11 C2 7.7 2 4.4 2 1 C1.34 0.67 0.68 0.34 0 0 Z " fill="#061005" transform="translate(130,140)"/>
<path d="M0 0 C1.91831905 0.09637488 3.83614764 0.2125031 5.75 0.375 C5.77688151 2.02074566 5.79634123 3.66661413 5.8125 5.3125 C5.82410156 6.22902344 5.83570313 7.14554688 5.84765625 8.08984375 C5.75 10.375 5.75 10.375 4.75 11.375 C2.89712498 11.44726502 1.04166122 11.4588122 -0.8125 11.4375 C-1.82441406 11.42847656 -2.83632812 11.41945312 -3.87890625 11.41015625 C-5.05259766 11.39275391 -5.05259766 11.39275391 -6.25 11.375 C-6.25 9.725 -6.25 8.075 -6.25 6.375 C-6.91 6.375 -7.57 6.375 -8.25 6.375 C-7.92 8.355 -7.59 10.335 -7.25 12.375 C-7.91 12.375 -8.57 12.375 -9.25 12.375 C-10.3177034 8.6380381 -10.36573004 6.70391694 -9.0625 3 C-5.66325375 -0.17262983 -4.52105352 0 0 0 Z M-5.25 2.375 C-5.25 5.015 -5.25 7.655 -5.25 10.375 C-1.95 10.375 1.35 10.375 4.75 10.375 C4.75 7.735 4.75 5.095 4.75 2.375 C1.45 2.375 -1.85 2.375 -5.25 2.375 Z " fill="#0B210A" transform="translate(198.25,155.625)"/>
<path d="M0 0 C3.37065593 1.12355198 5.49187986 2.49187986 8 5 C8.03525767 7.70015018 7.95290782 10.25486982 7.75 12.9375 C7.71003906 13.66646484 7.67007813 14.39542969 7.62890625 15.14648438 C7.37696562 18.86090644 7.10258851 20.84611723 5 24 C5 18.06 5 12.12 5 6 C3.35 6 1.7 6 0 6 C0 4.02 0 2.04 0 0 Z " fill="#3D603A" transform="translate(135,144)"/>
<path d="M0 0 C2.475 0.99 2.475 0.99 5 2 C4.67 3.98 4.34 5.96 4 8 C2.02 8 0.04 8 -2 8 C-2.6875 5.6875 -2.6875 5.6875 -3 3 C-1.5625 1.1875 -1.5625 1.1875 0 0 Z " fill="#2A3928" transform="translate(299,170)"/>
<path d="M0 0 C0.33 0 0.66 0 1 0 C1 2.64 1 5.28 1 8 C-1.97 8 -4.94 8 -8 8 C-8 6.35 -8 4.7 -8 3 C-6.865625 2.87625 -5.73125 2.7525 -4.5625 2.625 C-3.386875 2.41875 -2.21125 2.2125 -1 2 C-0.67 1.34 -0.34 0.68 0 0 Z " fill="#000A01" transform="translate(170,161)"/>
<path d="M0 0 C2 1 2 1 4 4 C4.1953125 7.13671875 4.1953125 7.13671875 4.125 10.6875 C4.10695312 11.86699219 4.08890625 13.04648438 4.0703125 14.26171875 C4.03550781 15.61716797 4.03550781 15.61716797 4 17 C6.97 17 9.94 17 13 17 C13 17.33 13 17.66 13 18 C6.74692761 18.83288874 1.23182639 19.03863773 -5 18 C-5 17.67 -5 17.34 -5 17 C-2.36 17 0.28 17 3 17 C2.01 11.39 1.02 5.78 0 0 Z " fill="#0B1809" transform="translate(243,161)"/>
<path d="M0 0 C1.32 1.65 2.64 3.3 4 5 C3.67 5.99 3.34 6.98 3 8 C2.70539688 13.79386145 3.40839424 18.42937983 5 24 C3.68 24 2.36 24 1 24 C0.67 16.08 0.34 8.16 0 0 Z " fill="#021402" transform="translate(46,152)"/>
<path d="M0 0 C0.33 0 0.66 0 1 0 C1.13487595 2.77245014 1.23400807 5.53837088 1.3125 8.3125 C1.3753418 9.49102539 1.3753418 9.49102539 1.43945312 10.69335938 C1.48638461 12.89913895 1.47010441 14.84323529 1 17 C-1.34375 19.0625 -1.34375 19.0625 -4 20 C-6.8125 19.6875 -6.8125 19.6875 -9 19 C-9 18.67 -9 18.34 -9 18 C-6.69 18 -4.38 18 -2 18 C-2.04125 16.88625 -2.0825 15.7725 -2.125 14.625 C-2.14300722 9.60098664 -1.11958236 4.8781803 0 0 Z " fill="#061705" transform="translate(82,160)"/>
<path d="M0 0 C2.08836672 4.17673343 2.3695619 6.65211418 2.625 11.25 C2.69976562 12.51328125 2.77453125 13.7765625 2.8515625 15.078125 C2.90054688 16.04234375 2.94953125 17.0065625 3 18 C1.68 18 0.36 18 -1 18 C-0.505 9.09 -0.505 9.09 0 0 Z " fill="#081E07" transform="translate(70,160)"/>
<path d="M0 0 C0.66 0.33 1.32 0.66 2 1 C1.67 1.66 1.34 2.32 1 3 C2.32 2.34 3.64 1.68 5 1 C4.67 5.95 4.34 10.9 4 16 C3.67 16 3.34 16 3 16 C3 13.69 3 11.38 3 9 C1.68 8.67 0.36 8.34 -1 8 C-1.04241723 5.66705225 -1.04092937 3.33297433 -1 1 C-0.67 0.67 -0.34 0.34 0 0 Z " fill="#041406" transform="translate(57,160)"/>
<path d="M0 0 C0.66 0 1.32 0 2 0 C2.02712153 1.916588 2.04645097 3.8332873 2.0625 5.75 C2.07410156 6.81734375 2.08570313 7.8846875 2.09765625 8.984375 C2.01510087 11.53368501 1.74617558 13.57933591 1 16 C2.32 16.33 3.64 16.66 5 17 C5 17.33 5 17.66 5 18 C3.02 18 1.04 18 -1 18 C-0.505 9.09 -0.505 9.09 0 0 Z " fill="#375339" transform="translate(17,160)"/>
<path d="M0 0 C2.5870256 0.34959805 4.51324205 0.65100373 6.65625 2.1875 C8.54446062 4.73438875 8.29795165 6.55803649 8.1875 9.6875 C8.16042969 10.68136719 8.13335937 11.67523438 8.10546875 12.69921875 C8.07066406 13.45847656 8.03585937 14.21773437 8 15 C7.34 15 6.68 15 6 15 C5.01751476 10.9472484 4.91840426 7.16138263 5 3 C2.525 2.01 2.525 2.01 0 1 C0 0.67 0 0.34 0 0 Z " fill="#3B5A3D" transform="translate(282,142)"/>
<path d="M0 0 C0.66 1.32 1.32 2.64 2 4 C2.33 3.34 2.66 2.68 3 2 C3.66 2 4.32 2 5 2 C4 10.57142857 4 10.57142857 3 14 C2.34 14 1.68 14 1 14 C0.04738513 9.23692563 -0.08333357 4.8333472 0 0 Z " fill="#0B1D0B" transform="translate(91,164)"/>
<path d="M0 0 C0.99 0.33 1.98 0.66 3 1 C3 1.99 3 2.98 3 4 C2.34 4 1.68 4 1 4 C0.67 5.65 0.34 7.3 0 9 C-1.32 9.33 -2.64 9.66 -4 10 C-4.125 7.125 -4.125 7.125 -4 4 C-2.66666667 2.66666667 -1.33333333 1.33333333 0 0 Z " fill="#3E613E" transform="translate(188,146)"/>
<path d="M0 0 C1.04449911 3.13349732 0.93423645 3.98968256 0 7 C3.27773504 6.24849977 3.27773504 6.24849977 5 3 C5.66 3.33 6.32 3.66 7 4 C6.67 5.65 6.34 7.3 6 9 C3.36 9 0.72 9 -2 9 C-1.125 1.125 -1.125 1.125 0 0 Z " fill="#3D5C40" transform="translate(96,169)"/>
<path d="M0 0 C0.33 0.66 0.66 1.32 1 2 C1.99 2.33 2.98 2.66 4 3 C4.08333357 7.8333472 3.95261487 12.23692563 3 17 C2.67 17 2.34 17 2 17 C1.34 11.39 0.68 5.78 0 0 Z " fill="#041503" transform="translate(74,141)"/>
<path d="M0 0 C2.31 0 4.62 0 7 0 C7 0.33 7 0.66 7 1 C5.35 1 3.7 1 2 1 C2 2.32 2 3.64 2 5 C4.64 5 7.28 5 10 5 C10 5.66 10 6.32 10 7 C6.7 7 3.4 7 0 7 C0 4.69 0 2.38 0 0 Z " fill="#3F5E3F" transform="translate(193,159)"/>
<path d="M0 0 C2.76390737 2.40339772 3.04065919 3.16263678 4 7 C1.03 7 -1.94 7 -5 7 C-5 5.35 -5 3.7 -5 2 C-2.525 3.485 -2.525 3.485 0 5 C0 3.35 0 1.7 0 0 Z " fill="#3C5A3F" transform="translate(189,171)"/>
<path d="M0 0 C0.99 0.33 1.98 0.66 3 1 C3 2.32 3 3.64 3 5 C4.54166642 3.62514468 4.54166642 3.62514468 6 2 C6 1.34 6 0.68 6 0 C6.66 0 7.32 0 8 0 C8.33 1.98 8.66 3.96 9 6 C6.36 6 3.72 6 1 6 C0.67 4.02 0.34 2.04 0 0 Z " fill="#3E583B" transform="translate(237,172)"/>
<path d="M0 0 C1.32 0.33 2.64 0.66 4 1 C4 2.98 4 4.96 4 7 C2.02 7.99 2.02 7.99 0 9 C0 6.03 0 3.06 0 0 Z " fill="#051806" transform="translate(180,149)"/>
<path d="M0 0 C0.66 0 1.32 0 2 0 C2.33 3.63 2.66 7.26 3 11 C0.36 11 -2.28 11 -5 11 C-5 10.67 -5 10.34 -5 10 C-3.35 10 -1.7 10 0 10 C0 6.7 0 3.4 0 0 Z " fill="#3F5E3E" transform="translate(177,167)"/>
<path d="M0 0 C0.33 0 0.66 0 1 0 C1.33 4.62 1.66 9.24 2 14 C1.01 14 0.02 14 -1 14 C-1.027193 12.41676312 -1.04648306 10.83338938 -1.0625 9.25 C-1.07410156 8.36828125 -1.08570312 7.4865625 -1.09765625 6.578125 C-1.00826198 4.2181162 -0.66912821 2.25501476 0 0 Z " fill="#072406" transform="translate(105,152)"/>
<path d="M0 0 C2.475 0.495 2.475 0.495 5 1 C5 3.97 5 6.94 5 10 C3.02 10.99 3.02 10.99 1 12 C1.33 8.37 1.66 4.74 2 1 C1.34 0.67 0.68 0.34 0 0 Z " fill="#0D2810" transform="translate(130,140)"/>
<path d="M0 0 C0.33 0 0.66 0 1 0 C1 5.28 1 10.56 1 16 C0.01 16 -0.98 16 -2 16 C-1.34 10.72 -0.68 5.44 0 0 Z " fill="#062104" transform="translate(38,156)"/>
<path d="M0 0 C1.485 0.99 1.485 0.99 3 2 C3.3148325 6.17153059 2.98386923 9.94153944 2 14 C1.34 13.67 0.68 13.34 0 13 C0 8.71 0 4.42 0 0 Z " fill="#386B39" transform="translate(239,154)"/>
<path d="M0 0 C0.33 0.66 0.66 1.32 1 2 C2.32 2 3.64 2 5 2 C5 4.31 5 6.62 5 9 C3.68 8.67 2.36 8.34 1 8 C0.67 5.36 0.34 2.72 0 0 Z " fill="#070A09" transform="translate(240,142)"/>
<path d="M0 0 C0.33 0 0.66 0 1 0 C1.33 4.62 1.66 9.24 2 14 C1.01 14 0.02 14 -1 14 C-0.67 9.38 -0.34 4.76 0 0 Z " fill="#071E07" transform="translate(234,152)"/>
<path d="M0 0 C0.99 0.33 1.98 0.66 3 1 C3 3.31 3 5.62 3 8 C2.01 8.33 1.02 8.66 0 9 C0 6.03 0 3.06 0 0 Z " fill="#031202" transform="translate(279,149)"/>
<path d="M0 0 C0.99 0.33 1.98 0.66 3 1 C3 3.31 3 5.62 3 8 C2.01 8.33 1.02 8.66 0 9 C0 6.03 0 3.06 0 0 Z " fill="#031103" transform="translate(256,149)"/>
<path d="M0 0 C2.05078125 0.03255208 4.1015625 0.06510417 6.15234375 0.09765625 C5.82234375 0.75765625 5.49234375 1.41765625 5.15234375 2.09765625 C2.18234375 1.60265625 2.18234375 1.60265625 -0.84765625 1.09765625 C-1.17765625 2.08765625 -1.50765625 3.07765625 -1.84765625 4.09765625 C-3.91015625 5.78515625 -3.91015625 5.78515625 -5.84765625 7.09765625 C-6.50765625 6.76765625 -7.16765625 6.43765625 -7.84765625 6.09765625 C-1.84765625 0.09765625 -1.84765625 0.09765625 0 0 Z " fill="#2E4B33" transform="translate(214.84765625,139.90234375)"/>
<path d="M0 0 C3.3 0 6.6 0 10 0 C9.67 1.32 9.34 2.64 9 4 C8.67 3.01 8.34 2.02 8 1 C5.0280615 2.12451727 2.66559313 3.22293791 0 5 C0 3.35 0 1.7 0 0 Z " fill="#3F5E3E" transform="translate(35,141)"/>
<path d="M0 0 C0.66 0 1.32 0 2 0 C2.33 0.66 2.66 1.32 3 2 C4.32 1.67 5.64 1.34 7 1 C7 2.32 7 3.64 7 5 C5.02 5 3.04 5 1 5 C0.67 3.35 0.34 1.7 0 0 Z " fill="#1F311D" transform="translate(296,173)"/>
<path d="M0 0 C0.33 0 0.66 0 1 0 C1.33 2.31 1.66 4.62 2 7 C3.65 6.67 5.3 6.34 7 6 C7.33 6.99 7.66 7.98 8 9 C5.36 9 2.72 9 0 9 C0 6.03 0 3.06 0 0 Z " fill="#3F5B3A" transform="translate(84,169)"/>
<path d="M0 0 C3.00617269 3.00617269 2.59585316 5.82381598 3 10 C2.01 10.66 1.02 11.32 0 12 C0 8.04 0 4.08 0 0 Z " fill="#031502" transform="translate(256,166)"/>
<path d="M0 0 C2 1 2 1 2.6328125 2.84765625 C2.79523437 3.57855469 2.95765625 4.30945313 3.125 5.0625 C3.29257812 5.79597656 3.46015625 6.52945313 3.6328125 7.28515625 C3.75398438 7.85105469 3.87515625 8.41695312 4 9 C2.68 9 1.36 9 0 9 C0 6.03 0 3.06 0 0 Z " fill="#082307" transform="translate(47,167)"/>
<path d="M0 0 C3.3 0 6.6 0 10 0 C10 0.33 10 0.66 10 1 C8.02 1 6.04 1 4 1 C4 1.99 4 2.98 4 4 C2.35 4 0.7 4 -1 4 C-0.67 2.68 -0.34 1.36 0 0 Z " fill="#2A4527" transform="translate(101,140)"/>
<path d="M0 0 C0.66 0 1.32 0 2 0 C2 0.99 2 1.98 2 3 C2.66 3 3.32 3 4 3 C3.67 5.31 3.34 7.62 3 10 C2.34 10 1.68 10 1 10 C0.67 6.7 0.34 3.4 0 0 Z " fill="#0E2110" transform="translate(220,168)"/>
<path d="M0 0 C1.98 0.99 3.96 1.98 6 3 C4.60804085 5.7839183 2.84424221 5.97898997 0 7 C0 4.69 0 2.38 0 0 Z " fill="#3B5E3D" transform="translate(118,167)"/>
<path d="M0 0 C0.66 0 1.32 0 2 0 C2.33 3.3 2.66 6.6 3 10 C2.67 9.34 2.34 8.68 2 8 C1.34 8 0.68 8 0 8 C0 5.36 0 2.72 0 0 Z " fill="#0A2609" transform="translate(25,162)"/>
<path d="M0 0 C0.66 0 1.32 0 2 0 C2 2.64 2 5.28 2 8 C0.68 7.67 -0.64 7.34 -2 7 C-1.34 4.69 -0.68 2.38 0 0 Z " fill="#3F5E3C" transform="translate(57,170)"/>
<path d="M0 0 C0.66 0.33 1.32 0.66 2 1 C2 2.65 2 4.3 2 6 C0.35 6 -1.3 6 -3 6 C-3 5.34 -3 4.68 -3 4 C-2.34 4 -1.68 4 -1 4 C-0.67 2.68 -0.34 1.36 0 0 Z " fill="#405F3E" transform="translate(33,172)"/>
<path d="M0 0 C0.33 0 0.66 0 1 0 C2.25 7.625 2.25 7.625 0 11 C-1.05404945 7.01803543 -0.84098656 4.01804691 0 0 Z " fill="#2D4D2B" transform="translate(228,146)"/>
<path d="M0 0 C0.66 0.33 1.32 0.66 2 1 C2 2.32 2 3.64 2 5 C-0.31 5 -2.62 5 -5 5 C-5 4.34 -5 3.68 -5 3 C-3.68 3 -2.36 3 -1 3 C-0.67 2.01 -0.34 1.02 0 0 Z " fill="#3F5840" transform="translate(266,173)"/>
<path d="M0 0 C1.32 0 2.64 0 4 0 C3.67 1.65 3.34 3.3 3 5 C2.01 5 1.02 5 0 5 C0 3.35 0 1.7 0 0 Z " fill="#091B0B" transform="translate(126,149)"/>
</svg>
